<?xml version="1.0" encoding="UTF-8" standalone="no"?>
<!-- Created with Inkscape (http://www.inkscape.org/) -->

<svg
   xmlns:dc="http://purl.org/dc/elements/1.1/"
   xmlns:cc="http://creativecommons.org/ns#"
   xmlns:rdf="http://www.w3.org/1999/02/22-rdf-syntax-ns#"
   xmlns:svg="http://www.w3.org/2000/svg"
   xmlns="http://www.w3.org/2000/svg"
   xmlns:sodipodi="http://sodipodi.sourceforge.net/DTD/sodipodi-0.dtd"
   xmlns:inkscape="http://www.inkscape.org/namespaces/inkscape"
   width="210mm"
   height="297mm"
   viewBox="0 0 744.09448819 1052.3622047"
   id="svg2"
   version="1.1"
   inkscape:version="0.91 r13725"
   sodipodi:docname="dragon-simple.svg">
  <defs
     id="defs4" />
  <sodipodi:namedview
     id="base"
     pagecolor="#ffffff"
     bordercolor="#666666"
     borderopacity="1.0"
     inkscape:pageopacity="0.0"
     inkscape:pageshadow="2"
     inkscape:zoom="1.5322345"
     inkscape:cx="293.15098"
     inkscape:cy="740.49186"
     inkscape:document-units="px"
     inkscape:current-layer="layer1"
     showgrid="true"
     inkscape:window-width="1440"
     inkscape:window-height="856"
     inkscape:window-x="0"
     inkscape:window-y="1"
     inkscape:window-maximized="1"
     inkscape:snap-grids="false"
     inkscape:snap-bbox="true"
     inkscape:snap-nodes="true"
     inkscape:bbox-nodes="true"
     inkscape:snap-bbox-edge-midpoints="false"
     inkscape:bbox-paths="false"
     inkscape:snap-global="true"
     inkscape:snap-to-guides="false"
     inkscape:snap-object-midpoints="true"
     inkscape:snap-center="true"
     inkscape:object-paths="false"
     inkscape:snap-intersection-paths="false"
     inkscape:object-nodes="true"
     inkscape:snap-smooth-nodes="true"
     showguides="true"
     inkscape:guide-bbox="true">
    <inkscape:grid
       type="xygrid"
       id="grid4136"
       empspacing="1"
       spacingx="10"
       spacingy="10" />
  </sodipodi:namedview>
  <metadata
     id="metadata7">
    <rdf:RDF>
      <cc:Work
         rdf:about="">
        <dc:format>image/svg+xml</dc:format>
        <dc:type
           rdf:resource="http://purl.org/dc/dcmitype/StillImage" />
        <dc:title />
      </cc:Work>
    </rdf:RDF>
  </metadata>
  <g
     inkscape:label="Livello 1"
     inkscape:groupmode="layer"
     id="layer1">
    <g
       id="g4764"
       transform="translate(-0.8888675,1.6460368)">
      <path
         sodipodi:nodetypes="cccccc"
         id="path2043"
         d="m 283.65396,315.43734 c -6.95033,-12.57949 1.4419,-13.70296 -0.69877,-30.92476 5.24989,8.1246 6.71559,18.09033 8.91958,21.03791 1.52111,2.31488 2.27131,5.10912 2.06679,7.98002 -0.0206,2.27211 2.41502,5.02518 1.74901,7.14646 -3.54139,-3.34408 -9.63269,-1.16442 -12.03661,-5.23963 z"
         style="fill:#e73900;fill-opacity:1;fill-rule:evenodd;stroke:none;stroke-width:1.00000038pt;stroke-linecap:butt;stroke-linejoin:miter;stroke-opacity:1"
         inkscape:connector-curvature="0" />
      <path
         sodipodi:nodetypes="cccccccc"
         id="path2041"
         d="m 294.16514,319.11054 c 0.0402,-2.40908 -2.43251,-3.45418 -3.42714,-5.33564 -1.64729,-1.43711 -2.16909,-3.67405 -2.20545,-5.8769 -0.13389,-3.52304 2.52983,-24.52948 6.41049,-30.17111 -1.48717,8.66318 2.20485,20.20306 4.48582,24.0207 1.54352,2.96624 2.1238,6.38148 1.56782,9.74197 -0.27316,2.68107 -2.15701,4.2921 -3.17611,6.69678 -1.01942,1.44817 -2.40674,1.58538 -3.65543,0.9242 z"
         style="fill:#e73900;fill-opacity:1;fill-rule:evenodd;stroke:none;stroke-width:1.00000019pt;stroke-linecap:butt;stroke-linejoin:miter;stroke-opacity:1"
         inkscape:connector-curvature="0" />
      <path
         sodipodi:nodetypes="cccccsc"
         id="path2063"
         d="m 295.57374,320.28902 c 0.59153,-2.09295 -0.57907,-5.41041 -0.94769,-7.35155 -1.00008,-1.74789 -0.90345,-3.85835 -0.42173,-5.79397 0.70909,-3.11829 0.82615,-17.83358 12.26928,-24.7439 -8.87472,10.26559 -2.98188,18.60847 -2.02118,22.62572 0.56125,3.05298 0.27434,6.23498 -0.9913,8.98058 -1.74736,3.79059 -6.41274,5.87973 -7.88738,6.28312 z"
         style="fill:#e73900;fill-opacity:1;fill-rule:evenodd;stroke:none;stroke-width:1.00000019pt;stroke-linecap:butt;stroke-linejoin:miter;stroke-opacity:1"
         inkscape:connector-curvature="0" />
      <path
         sodipodi:nodetypes="ccccs"
         id="path2051"
         d="m 287.94275,315.72357 c -4.2707,-4.77946 -1.08136,-7.58567 -1.11951,-13.55526 1.18059,5.22456 4.91484,6.51191 4.86689,9.65038 0.61691,0.93883 3.84708,7.63383 3.57697,8.49414 -1.43625,-1.35623 -5.70625,-2.77839 -7.32435,-4.58926 z"
         style="fill:#e7e100;fill-opacity:1;fill-rule:evenodd;stroke:none;stroke-width:1.00000038pt;stroke-linecap:butt;stroke-linejoin:miter;stroke-opacity:1"
         inkscape:connector-curvature="0" />
      <path
         sodipodi:nodetypes="cccccccc"
         id="path1310"
         d="m 293.60104,319.20621 c 0.0603,-1.20325 -1.06671,-1.78073 -1.49476,-2.74331 -0.73798,-0.75503 -0.94091,-1.88476 -0.91963,-2.98663 -10e-4,-1.76392 -0.0521,-12.75946 1.84266,-15.49287 -0.83862,4.29701 2.31958,10.70248 3.30983,12.6615 0.66346,1.51703 0.87309,3.23702 0.55746,4.90432 -0.1729,1.334 -0.76049,2.52924 -1.27404,3.70847 -0.49715,0.70113 -1.45469,0.30683 -2.02152,-0.0515 z"
         style="fill:#e7e100;fill-opacity:1;fill-rule:evenodd;stroke:none;stroke-width:0.99999981pt;stroke-linecap:butt;stroke-linejoin:miter;stroke-opacity:1"
         inkscape:connector-curvature="0" />
      <path
         sodipodi:nodetypes="cccccccc"
         id="path2047"
         d="m 294.50235,319.3599 c 0.48512,-0.83762 -0.11628,-1.82927 -0.0719,-2.74231 -0.25549,-0.92134 0.0127,-1.84018 0.43244,-2.62453 0.64664,-1.27354 1.78299,-10.73785 4.15363,-11.74401 -2.18231,2.67334 1.60731,9.82115 1.60297,11.74009 -0.078,1.43326 -1.55686,3.37032 -2.39657,4.4126 -0.61438,0.87455 -1.83029,1.71499 -2.63371,2.30407 -0.61612,-0.44155 -0.80927,-0.79818 -1.08684,-1.34591 z"
         style="fill:#e7e100;fill-opacity:1;fill-rule:evenodd;stroke:none;stroke-width:0.99999981pt;stroke-linecap:butt;stroke-linejoin:miter;stroke-opacity:1"
         inkscape:connector-curvature="0" />
    </g>
    <g
       id="g4844"
       transform="matrix(0.84922064,-0.52803817,0.52803817,0.84922064,-152.89545,209.2756)"
       inkscape:transform-center-x="5.0510025"
       inkscape:transform-center-y="1.0784379"
       style="fill:#270000;fill-opacity:1">
      <path
         inkscape:connector-curvature="0"
         id="path4838"
         d="m 286.66923,372.36222 1.66539,-4.99616 1.66538,4.99616 z"
         style="fill:#270000;fill-rule:evenodd;stroke:#000000;stroke-width:0.1665387px;stroke-linecap:butt;stroke-linejoin:miter;stroke-opacity:1;fill-opacity:1" />
      <path
         style="fill:#270000;fill-rule:evenodd;stroke:#000000;stroke-width:0.1665387px;stroke-linecap:butt;stroke-linejoin:miter;stroke-opacity:1;fill-opacity:1"
         d="m 283.1074,372.36222 1.66539,-4.99616 1.66538,4.99616 z"
         id="path4840"
         inkscape:connector-curvature="0" />
      <path
         inkscape:connector-curvature="0"
         id="path4842"
         d="m 279.54557,372.36222 1.66539,-4.99616 1.66538,4.99616 z"
         style="fill:#270000;fill-rule:evenodd;stroke:#000000;stroke-width:0.1665387px;stroke-linecap:butt;stroke-linejoin:miter;stroke-opacity:1;fill-opacity:1" />
    </g>
    <g
       inkscape:transform-center-y="1.0784379"
       inkscape:transform-center-x="5.0510025"
       transform="matrix(0.84922064,-0.52803817,0.52803817,0.84922064,-154.01733,243.75527)"
       id="g4849"
       style="fill:#270000;fill-opacity:1">
      <path
         style="fill:#270000;fill-rule:evenodd;stroke:#000000;stroke-width:0.1665387px;stroke-linecap:butt;stroke-linejoin:miter;stroke-opacity:1;fill-opacity:1"
         d="m 286.66923,372.36222 1.66539,-4.99616 1.66538,4.99616 z"
         id="path4851"
         inkscape:connector-curvature="0" />
      <path
         inkscape:connector-curvature="0"
         id="path4853"
         d="m 283.1074,372.36222 1.66539,-4.99616 1.66538,4.99616 z"
         style="fill:#270000;fill-rule:evenodd;stroke:#000000;stroke-width:0.1665387px;stroke-linecap:butt;stroke-linejoin:miter;stroke-opacity:1;fill-opacity:1" />
      <path
         style="fill:#270000;fill-rule:evenodd;stroke:#000000;stroke-width:0.1665387px;stroke-linecap:butt;stroke-linejoin:miter;stroke-opacity:1;fill-opacity:1"
         d="m 279.54557,372.36222 1.66539,-4.99616 1.66538,4.99616 z"
         id="path4855"
         inkscape:connector-curvature="0" />
    </g>
    <g
       inkscape:transform-center-y="1.0784379"
       inkscape:transform-center-x="-5.0510018"
       transform="matrix(-0.84922064,-0.52803817,-0.52803817,0.84922064,742.89545,209.2756)"
       id="g4857"
       style="fill:#270000;fill-opacity:1">
      <path
         style="fill:#270000;fill-rule:evenodd;stroke:#000000;stroke-width:0.1665387px;stroke-linecap:butt;stroke-linejoin:miter;stroke-opacity:1;fill-opacity:1"
         d="m 286.66923,372.36222 1.66539,-4.99616 1.66538,4.99616 z"
         id="path4859"
         inkscape:connector-curvature="0" />
      <path
         inkscape:connector-curvature="0"
         id="path4861"
         d="m 283.1074,372.36222 1.66539,-4.99616 1.66538,4.99616 z"
         style="fill:#270000;fill-rule:evenodd;stroke:#000000;stroke-width:0.1665387px;stroke-linecap:butt;stroke-linejoin:miter;stroke-opacity:1;fill-opacity:1" />
      <path
         style="fill:#270000;fill-rule:evenodd;stroke:#000000;stroke-width:0.1665387px;stroke-linecap:butt;stroke-linejoin:miter;stroke-opacity:1;fill-opacity:1"
         d="m 279.54557,372.36222 1.66539,-4.99616 1.66538,4.99616 z"
         id="path4863"
         inkscape:connector-curvature="0" />
    </g>
    <g
       id="g4865"
       transform="matrix(-0.84922064,-0.52803817,-0.52803817,0.84922064,744.01733,243.75527)"
       inkscape:transform-center-x="-5.0510018"
       inkscape:transform-center-y="1.0784379"
       style="fill:#270000;fill-opacity:1">
      <path
         inkscape:connector-curvature="0"
         id="path4867"
         d="m 286.66923,372.36222 1.66539,-4.99616 1.66538,4.99616 z"
         style="fill:#270000;fill-rule:evenodd;stroke:#000000;stroke-width:0.1665387px;stroke-linecap:butt;stroke-linejoin:miter;stroke-opacity:1;fill-opacity:1" />
      <path
         style="fill:#270000;fill-rule:evenodd;stroke:#000000;stroke-width:0.1665387px;stroke-linecap:butt;stroke-linejoin:miter;stroke-opacity:1;fill-opacity:1"
         d="m 283.1074,372.36222 1.66539,-4.99616 1.66538,4.99616 z"
         id="path4869"
         inkscape:connector-curvature="0" />
      <path
         inkscape:connector-curvature="0"
         id="path4871"
         d="m 279.54557,372.36222 1.66539,-4.99616 1.66538,4.99616 z"
         style="fill:#270000;fill-rule:evenodd;stroke:#000000;stroke-width:0.1665387px;stroke-linecap:butt;stroke-linejoin:miter;stroke-opacity:1;fill-opacity:1" />
    </g>
    <path
       id="path4225"
       style="opacity:1;fill:#279e00;fill-opacity:1;stroke:#007700;stroke-width:1;stroke-linecap:butt;stroke-linejoin:miter;stroke-miterlimit:4;stroke-dasharray:none;stroke-dashoffset:0;stroke-opacity:1"
       d="m 230,432.36222 c 0,-10 -20,-30 -40.00003,-10 10.00003,-10 10.00003,-60 -9.99997,-60 10,0 30,-10 19.99997,-20 39.91874,0 54.00003,40 80.00003,40 0,0 0,-10 10,-10 l 0,-20 c 0,-10 0,-10 -10,0 0,-10 10,-10 10,-20 0,-10 10,-10 10,0 0,10 10,10 10,20 -10,-10 -10,-10 -10,0 l 0,20 c 10,0 10,10 10,10 20,0 39.73454,-40 80.00003,-40 -10.00003,10 9.99997,20 19.99997,20 -20,0 -20,50 -9.99997,60 -10.00003,-10 -40.00003,0 -40.00003,10 -10,-20 -20,-30 -30,-20 -16.40128,-24.60191 -30,-20 -30,-10 0,10 10,0 10,10 0,10 -10,10 -10,10 0,20 -20.47954,43.53727 -20,60 0.41177,14.13613 30,30 40,-10 -10,50 -50,30 -50,10 0,-16.78289 20,-40 20,-60 0,0 -10,0 -10,-10 0,-10 10,0 10,-10 0,-10 -13.71523,-14.42716 -30,10 -10,-10 -20,0 -30,20 z"
       inkscape:connector-curvature="0"
       sodipodi:nodetypes="ccccccccccccccccccczscccscszcc" />
    <path
       style="fill:#000000;fill-opacity:1;fill-rule:evenodd;stroke:none;stroke-width:1.01765549px;stroke-linecap:butt;stroke-linejoin:miter;stroke-opacity:1"
       d="m 287.46274,344.4261 5.07452,-3.77616 c 0,0 -2.75403,-0.76617 -3.78223,-0.0365 -1.09435,0.77661 -1.29229,3.81266 -1.29229,3.81266 z"
       id="path4902"
       inkscape:connector-curvature="0"
       sodipodi:nodetypes="ccsc" />
    <path
       inkscape:connector-curvature="0"
       id="path4906"
       d="m 302.53726,344.4261 -5.07453,-3.77616 c 0,0 2.75403,-0.76617 3.78224,-0.0365 1.09435,0.77661 1.29229,3.81266 1.29229,3.81266 z"
       style="fill:#000000;fill-opacity:1;fill-rule:evenodd;stroke:none;stroke-width:1.01765549px;stroke-linecap:butt;stroke-linejoin:miter;stroke-opacity:1"
       sodipodi:nodetypes="ccsc" />
  </g>
</svg>
